<svg id="svg" version="1.1" xmlns="http://www.w3.org/2000/svg" xmlns:xlink="http://www.w3.org/1999/xlink" width="400" height="400" viewBox="0, 0, 400,400"><g id="svgg"><path id="path0" d="M50.400 95.200 C 50.400 95.420,49.860 95.600,49.200 95.600 C 48.058 95.600,47.606 96.109,48.344 96.565 C 48.533 96.682,48.805 97.908,48.949 99.289 C 49.205 101.738,50.362 106.022,51.161 107.475 C 51.380 107.874,52.198 109.550,52.980 111.200 C 54.757 114.952,55.723 116.636,58.219 120.335 C 59.309 121.949,60.380 123.561,60.600 123.916 C 60.820 124.271,61.681 125.470,62.514 126.581 C 63.347 127.691,64.337 129.017,64.714 129.526 C 65.091 130.035,65.985 131.137,66.700 131.974 C 67.415 132.812,68.000 133.572,68.000 133.664 C 68.000 133.756,68.765 134.697,69.700 135.756 C 74.892 141.632,76.409 143.295,79.262 146.243 C 80.988 148.027,82.400 149.648,82.400 149.846 C 82.400 150.212,83.936 151.665,86.548 153.770 C 87.347 154.413,88.000 155.129,88.000 155.360 C 88.000 155.864,93.630 161.600,94.124 161.600 C 94.314 161.600,96.426 163.580,98.818 166.000 C 101.210 168.420,103.293 170.400,103.447 170.400 C 103.707 170.400,107.006 173.327,109.800 176.037 C 110.460 176.677,111.209 177.201,111.464 177.200 C 111.720 177.200,112.383 177.740,112.939 178.400 C 113.494 179.060,114.112 179.600,114.312 179.600 C 114.512 179.600,115.002 179.960,115.400 180.400 C 115.798 180.840,116.326 181.200,116.573 181.200 C 116.820 181.200,117.320 181.515,117.685 181.900 C 118.957 183.244,124.133 186.800,124.818 186.800 C 125.028 186.800,125.200 186.975,125.200 187.188 C 125.200 187.402,126.190 188.045,127.400 188.617 C 128.610 189.190,129.600 189.825,129.600 190.029 C 129.600 190.233,130.005 190.401,130.500 190.403 C 130.995 190.404,131.940 190.763,132.600 191.200 C 133.260 191.637,134.295 191.996,134.900 191.997 C 136.153 192.000,136.565 194.098,135.400 194.545 C 135.070 194.671,134.800 194.980,134.800 195.230 C 134.800 195.480,134.297 196.341,133.682 197.142 C 132.508 198.674,131.412 200.792,131.530 201.300 C 131.569 201.465,131.440 201.600,131.245 201.600 C 131.049 201.600,130.763 202.275,130.609 203.100 C 130.455 203.925,130.153 204.813,129.938 205.072 C 129.724 205.332,129.444 206.552,129.317 207.784 C 129.190 209.016,128.931 210.119,128.743 210.235 C 128.245 210.543,128.301 230.800,128.800 230.800 C 129.295 230.800,129.346 237.863,128.853 238.167 C 128.662 238.285,128.412 239.218,128.297 240.240 C 128.181 241.263,127.862 242.238,127.586 242.409 C 127.309 242.580,127.184 243.094,127.305 243.559 C 127.426 244.021,127.370 244.495,127.181 244.612 C 126.992 244.729,126.715 245.903,126.566 247.221 C 126.417 248.539,126.151 249.707,125.975 249.815 C 125.800 249.924,125.529 251.025,125.375 252.263 C 125.220 253.501,124.849 254.983,124.549 255.557 C 124.250 256.131,124.004 257.084,124.002 257.676 C 124.001 258.268,123.833 258.856,123.628 258.983 C 123.423 259.109,123.140 260.245,122.999 261.506 C 122.858 262.768,122.650 264.070,122.539 264.400 C 122.276 265.173,122.274 270.815,122.535 271.600 C 122.645 271.930,122.824 273.572,122.933 275.250 C 123.042 276.927,123.306 278.637,123.520 279.050 C 124.515 280.965,126.000 284.243,126.000 284.525 C 126.000 284.697,126.422 285.235,126.938 285.719 C 127.454 286.204,128.001 287.110,128.154 287.734 C 128.307 288.358,128.875 289.278,129.416 289.780 C 129.957 290.281,130.400 290.905,130.400 291.165 C 130.400 291.773,140.210 301.600,140.817 301.600 C 141.067 301.600,142.221 302.410,143.379 303.400 C 144.538 304.390,145.697 305.200,145.956 305.200 C 146.214 305.200,146.522 305.452,146.640 305.761 C 146.759 306.069,147.158 306.433,147.528 306.570 C 147.897 306.707,148.920 307.261,149.800 307.802 C 150.680 308.342,151.850 309.011,152.400 309.287 C 152.950 309.564,153.620 309.999,153.888 310.255 C 154.156 310.510,155.686 311.379,157.288 312.185 C 158.890 312.991,160.470 313.802,160.800 313.986 C 162.902 315.158,169.987 318.414,170.900 318.629 C 171.505 318.771,172.000 319.033,172.000 319.212 C 172.000 319.390,172.582 319.664,173.294 319.821 C 174.006 319.977,174.951 320.338,175.394 320.623 C 175.837 320.908,176.877 321.265,177.704 321.416 C 178.532 321.567,179.301 321.840,179.414 322.022 C 179.526 322.205,180.427 322.475,181.414 322.623 C 182.402 322.771,183.300 323.039,183.411 323.218 C 183.522 323.397,184.600 323.667,185.806 323.818 C 187.013 323.969,188.000 324.239,188.000 324.419 C 188.000 324.598,189.440 324.871,191.200 325.024 C 192.960 325.178,194.400 325.430,194.400 325.585 C 194.400 325.739,195.390 325.784,196.600 325.683 C 198.070 325.561,198.800 325.650,198.800 325.950 C 198.800 326.583,219.837 326.587,220.228 325.954 C 220.398 325.680,221.258 325.581,222.464 325.697 C 223.542 325.800,224.506 325.752,224.606 325.590 C 224.706 325.428,226.141 325.168,227.794 325.013 C 229.447 324.858,230.800 324.588,230.800 324.412 C 230.800 324.236,231.787 323.969,232.994 323.818 C 234.200 323.667,235.278 323.397,235.389 323.217 C 235.500 323.038,236.268 322.764,237.096 322.610 C 237.923 322.455,238.780 322.202,239.000 322.048 C 239.220 321.893,240.120 321.537,241.000 321.257 C 243.182 320.562,243.799 320.310,246.800 318.891 C 248.230 318.215,249.838 317.536,250.373 317.381 C 251.582 317.032,254.366 315.564,255.923 314.455 C 256.568 313.996,257.524 313.431,258.048 313.200 C 258.571 312.970,259.720 312.340,260.600 311.800 C 261.480 311.261,262.503 310.707,262.872 310.570 C 263.242 310.433,263.641 310.069,263.760 309.761 C 263.878 309.452,264.179 309.200,264.429 309.200 C 264.844 309.200,267.331 307.306,271.367 303.916 C 274.501 301.284,281.200 294.337,281.200 293.719 C 281.200 293.502,281.560 292.998,282.000 292.600 C 282.440 292.202,282.800 291.653,282.800 291.381 C 282.800 291.108,283.070 290.782,283.400 290.655 C 283.730 290.529,284.000 290.193,284.000 289.908 C 284.000 289.624,284.454 288.902,285.008 288.304 C 285.563 287.706,286.126 286.669,286.260 286.000 C 286.394 285.331,286.663 284.685,286.858 284.564 C 287.053 284.443,287.109 284.177,286.983 283.972 C 286.856 283.768,286.929 283.600,287.145 283.600 C 287.360 283.600,287.655 283.060,287.800 282.400 C 287.945 281.740,288.218 281.200,288.407 281.200 C 288.596 281.200,288.877 280.345,289.031 279.300 C 289.185 278.255,289.457 277.305,289.635 277.189 C 290.123 276.872,290.602 264.377,290.139 264.062 C 289.926 263.918,289.534 262.360,289.267 260.600 C 289.000 258.840,288.610 257.341,288.401 257.270 C 288.191 257.198,287.902 256.253,287.758 255.170 C 287.615 254.086,287.361 253.200,287.195 253.200 C 287.028 253.200,286.769 252.213,286.618 251.006 C 286.467 249.800,286.165 248.702,285.946 248.567 C 285.727 248.431,285.598 247.843,285.659 247.260 C 285.720 246.677,285.597 245.930,285.385 245.600 C 285.169 245.263,284.941 239.791,284.864 233.100 C 284.790 226.555,284.591 221.200,284.423 221.200 C 284.256 221.200,283.995 219.452,283.845 217.315 C 283.695 215.178,283.420 213.333,283.234 213.215 C 283.048 213.097,282.767 211.875,282.609 210.500 C 282.451 209.125,282.146 208.000,281.932 208.000 C 281.718 208.000,281.595 207.595,281.659 207.100 C 281.723 206.605,281.671 206.020,281.543 205.800 C 281.415 205.580,281.190 204.860,281.041 204.200 C 280.754 202.916,280.641 202.658,277.792 196.727 C 276.768 194.597,275.991 192.527,276.065 192.127 C 276.181 191.500,280.898 188.657,283.300 187.766 C 283.685 187.624,284.000 187.362,284.000 187.185 C 284.000 187.008,284.540 186.745,285.200 186.600 C 285.860 186.455,286.401 186.216,286.403 186.068 C 286.405 185.921,286.810 185.599,287.303 185.352 C 289.949 184.032,290.800 183.509,290.800 183.202 C 290.800 183.016,291.340 182.745,292.000 182.600 C 292.660 182.455,293.200 182.181,293.200 181.990 C 293.200 181.664,294.065 181.109,296.400 179.937 C 296.950 179.661,298.056 178.932,298.858 178.318 C 299.659 177.703,300.443 177.200,300.600 177.200 C 300.757 177.200,301.567 176.660,302.400 176.000 C 303.233 175.340,304.105 174.800,304.338 174.800 C 304.570 174.800,304.904 174.575,305.080 174.299 C 305.256 174.024,305.939 173.529,306.597 173.199 C 307.255 172.870,308.176 172.195,308.643 171.700 C 309.110 171.205,309.626 170.800,309.790 170.800 C 309.955 170.800,310.949 170.080,312.000 169.200 C 313.051 168.320,314.042 167.600,314.201 167.600 C 314.361 167.600,315.530 166.700,316.800 165.600 C 318.070 164.500,319.266 163.600,319.459 163.600 C 319.651 163.600,320.255 163.060,320.800 162.400 C 321.345 161.740,322.004 161.200,322.263 161.200 C 322.523 161.200,323.720 160.300,324.924 159.200 C 326.127 158.100,327.242 157.200,327.401 157.200 C 328.306 157.200,349.200 135.152,349.200 134.196 C 349.200 134.039,349.887 133.076,350.727 132.056 C 352.988 129.308,355.261 125.816,357.273 122.000 C 357.679 121.230,358.185 120.330,358.397 120.000 C 359.696 117.980,362.800 109.725,362.800 108.292 C 362.800 107.597,351.352 107.025,350.937 107.700 C 350.836 107.865,349.784 108.000,348.600 108.000 C 347.416 108.000,346.351 108.156,346.233 108.347 C 346.115 108.538,345.069 108.819,343.909 108.970 C 341.832 109.242,336.963 110.526,335.400 111.214 C 334.960 111.408,333.790 111.762,332.800 112.000 C 331.810 112.238,330.550 112.625,330.000 112.859 C 329.450 113.093,328.460 113.512,327.800 113.790 C 327.140 114.068,326.060 114.530,325.400 114.818 C 324.740 115.105,324.086 115.315,323.946 115.285 C 323.517 115.193,309.531 122.339,308.741 123.053 C 308.334 123.422,308.000 123.585,308.000 123.415 C 308.000 123.244,307.415 123.538,306.700 124.066 C 305.985 124.595,304.950 125.245,304.400 125.511 C 302.883 126.244,301.832 126.950,301.505 127.455 C 301.343 127.706,300.731 128.031,300.145 128.178 C 299.559 128.325,298.733 128.885,298.311 129.423 C 297.888 129.960,297.347 130.400,297.109 130.400 C 296.870 130.400,296.086 130.850,295.364 131.400 C 294.643 131.950,293.874 132.400,293.656 132.400 C 293.437 132.400,292.904 132.850,292.471 133.400 C 292.039 133.950,291.514 134.400,291.304 134.400 C 291.095 134.400,290.598 134.760,290.200 135.200 C 289.802 135.640,289.277 136.000,289.034 136.000 C 288.791 136.000,288.368 136.360,288.093 136.800 C 287.818 137.240,287.394 137.600,287.150 137.600 C 286.906 137.600,285.489 138.680,284.000 140.000 C 282.511 141.320,281.158 142.400,280.992 142.400 C 280.827 142.400,279.205 143.750,277.387 145.400 C 275.570 147.050,273.932 148.400,273.748 148.400 C 273.338 148.400,262.848 158.690,254.072 167.700 C 251.912 169.919,250.772 170.800,250.063 170.800 C 249.184 170.800,243.310 168.178,242.800 167.557 C 242.690 167.424,241.655 167.074,240.500 166.781 C 239.345 166.488,238.400 166.123,238.400 165.969 C 238.400 165.815,237.725 165.563,236.900 165.409 C 236.075 165.255,235.220 164.987,235.000 164.815 C 234.780 164.642,233.700 164.371,232.600 164.213 C 231.500 164.055,230.376 163.741,230.102 163.515 C 229.829 163.290,229.154 163.192,228.602 163.297 C 228.051 163.403,227.600 163.349,227.600 163.179 C 227.600 163.008,226.205 162.755,224.500 162.616 C 222.795 162.477,221.087 162.191,220.705 161.982 C 220.323 161.772,219.048 161.600,217.872 161.600 C 216.696 161.600,215.630 161.497,215.504 161.371 C 215.158 161.024,197.200 160.955,197.200 161.300 C 197.200 161.465,196.028 161.600,194.595 161.600 C 193.162 161.600,191.677 161.767,191.295 161.970 C 190.913 162.174,188.485 162.555,185.900 162.818 C 183.315 163.081,181.200 163.433,181.200 163.601 C 181.200 163.769,180.030 164.032,178.600 164.185 C 177.170 164.338,176.000 164.618,176.000 164.807 C 176.000 164.996,175.164 165.276,174.141 165.430 C 173.119 165.583,171.814 165.953,171.241 166.252 C 170.669 166.551,169.868 166.796,169.462 166.798 C 168.734 166.800,168.234 167.013,164.921 168.730 C 163.997 169.208,162.872 169.600,162.421 169.600 C 161.969 169.600,161.600 169.759,161.600 169.953 C 161.600 170.148,161.285 170.425,160.900 170.570 C 159.637 171.045,157.476 172.353,157.190 172.816 C 156.007 174.730,153.660 173.078,151.909 169.100 C 151.643 168.495,151.297 168.000,151.142 168.000 C 150.986 168.000,150.609 167.505,150.303 166.900 C 149.227 164.769,148.591 163.782,147.103 161.928 C 146.276 160.899,145.600 159.934,145.600 159.784 C 145.600 159.634,144.880 158.651,144.000 157.600 C 143.120 156.549,142.400 155.579,142.400 155.444 C 142.400 155.310,142.129 154.885,141.798 154.500 C 141.467 154.115,140.287 152.720,139.177 151.400 C 138.067 150.080,136.538 148.370,135.778 147.600 C 135.019 146.830,134.398 146.018,134.399 145.797 C 134.400 145.274,117.519 128.400,116.997 128.401 C 116.778 128.402,115.970 127.784,115.200 127.029 C 112.848 124.720,110.130 122.401,109.755 122.383 C 109.560 122.374,108.958 121.834,108.419 121.183 C 107.879 120.532,107.268 120.000,107.062 120.000 C 106.855 120.000,105.767 119.222,104.643 118.271 C 103.519 117.319,102.285 116.425,101.900 116.283 C 101.515 116.141,101.200 115.829,101.200 115.589 C 101.200 115.349,101.040 115.251,100.845 115.372 C 100.650 115.493,100.268 115.323,99.996 114.996 C 99.724 114.668,99.325 114.400,99.109 114.400 C 98.892 114.400,98.033 113.860,97.200 113.200 C 96.367 112.540,95.486 112.000,95.242 112.000 C 94.999 112.000,94.800 111.830,94.800 111.622 C 94.800 111.247,94.169 110.852,90.920 109.190 C 89.997 108.718,89.031 108.079,88.775 107.770 C 88.519 107.461,88.150 107.307,87.955 107.428 C 87.760 107.549,87.600 107.476,87.600 107.267 C 87.600 107.058,87.107 106.763,86.504 106.612 C 85.901 106.460,85.316 106.213,85.204 106.063 C 84.900 105.655,80.248 103.424,79.900 103.518 C 79.735 103.563,79.600 103.434,79.600 103.232 C 79.600 103.029,79.060 102.745,78.400 102.600 C 77.740 102.455,77.200 102.182,77.200 101.993 C 77.200 101.804,76.376 101.525,75.368 101.374 C 74.361 101.223,73.448 100.870,73.340 100.589 C 73.233 100.308,72.482 99.955,71.672 99.804 C 70.863 99.652,70.020 99.385,69.800 99.209 C 69.580 99.033,67.600 98.400,65.400 97.802 C 63.200 97.203,61.068 96.541,60.663 96.330 C 60.258 96.120,58.683 95.843,57.163 95.716 C 55.643 95.588,54.400 95.330,54.400 95.142 C 54.400 94.954,53.500 94.800,52.400 94.800 C 51.300 94.800,50.400 94.980,50.400 95.200 " stroke="none" fill="#fc544c" fill-rule="evenodd"></path><path id="path1" d="M56.200 94.800 C 56.336 95.020,56.807 95.200,57.247 95.200 C 57.687 95.200,57.936 95.020,57.800 94.800 C 57.664 94.580,57.193 94.400,56.753 94.400 C 56.313 94.400,56.064 94.580,56.200 94.800 M62.000 96.025 C 62.000 96.480,63.075 96.527,63.349 96.083 C 63.456 95.909,63.197 95.740,62.772 95.708 C 62.348 95.676,62.000 95.819,62.000 96.025 M66.000 97.200 C 66.000 97.420,66.270 97.600,66.600 97.600 C 66.930 97.600,67.200 97.420,67.200 97.200 C 67.200 96.980,66.930 96.800,66.600 96.800 C 66.270 96.800,66.000 96.980,66.000 97.200 M47.600 99.624 C 47.600 100.077,47.780 100.336,48.000 100.200 C 48.220 100.064,48.400 99.693,48.400 99.376 C 48.400 99.059,48.220 98.800,48.000 98.800 C 47.780 98.800,47.600 99.171,47.600 99.624 M352.000 106.786 C 352.721 107.269,355.600 107.337,355.600 106.871 C 355.600 106.691,354.655 106.507,353.500 106.464 C 351.982 106.406,351.566 106.495,352.000 106.786 M50.242 107.436 C 50.107 107.786,50.307 108.596,50.685 109.236 C 51.525 110.658,52.102 110.782,51.462 109.403 C 51.208 108.855,50.853 108.405,50.673 108.403 C 50.493 108.401,50.460 108.040,50.600 107.600 C 50.900 106.654,50.595 106.514,50.242 107.436 M347.339 107.654 C 347.868 107.961,348.202 107.958,348.519 107.641 C 348.840 107.320,348.641 107.203,347.780 107.212 C 346.746 107.223,346.691 107.277,347.339 107.654 M342.625 107.961 C 342.544 108.093,343.090 108.245,343.839 108.300 C 344.588 108.355,345.200 108.232,345.200 108.027 C 345.200 107.625,342.868 107.566,342.625 107.961 M51.867 111.371 C 51.746 111.685,51.907 112.157,52.224 112.420 C 52.632 112.759,52.800 112.767,52.800 112.449 C 52.800 112.202,52.626 112.000,52.413 112.000 C 52.199 112.000,52.129 111.730,52.255 111.400 C 52.382 111.070,52.396 110.800,52.286 110.800 C 52.176 110.800,51.987 111.057,51.867 111.371 M358.261 121.287 C 357.961 122.436,358.117 122.545,358.707 121.600 C 358.969 121.181,359.028 120.741,358.837 120.623 C 358.647 120.505,358.388 120.804,358.261 121.287 M356.216 124.773 C 356.071 125.008,356.081 125.200,356.238 125.200 C 356.395 125.200,356.191 125.568,355.784 126.017 C 355.156 126.712,355.144 126.796,355.707 126.580 C 356.071 126.440,356.483 125.969,356.621 125.533 C 356.904 124.643,356.623 124.116,356.216 124.773 M60.225 125.628 C 61.041 126.529,61.669 126.646,61.360 125.839 C 61.241 125.531,60.781 125.184,60.336 125.067 C 59.560 124.864,59.556 124.888,60.225 125.628 M62.000 127.924 C 62.000 128.139,62.285 128.424,62.633 128.557 C 63.023 128.707,63.206 128.618,63.108 128.325 C 62.909 127.727,62.000 127.398,62.000 127.924 M354.267 127.867 C 353.781 128.353,353.990 128.779,354.600 128.545 C 354.930 128.418,355.200 128.154,355.200 127.957 C 355.200 127.538,354.649 127.484,354.267 127.867 M353.043 129.833 C 352.893 130.223,352.982 130.406,353.275 130.308 C 353.873 130.109,354.202 129.200,353.676 129.200 C 353.461 129.200,353.176 129.485,353.043 129.833 M63.895 129.838 C 63.754 129.980,63.908 130.365,64.238 130.695 C 64.568 131.025,64.954 131.180,65.095 131.038 C 65.237 130.897,65.082 130.511,64.752 130.181 C 64.422 129.851,64.037 129.697,63.895 129.838 M351.454 131.802 C 351.315 132.165,351.456 132.400,351.813 132.400 C 352.460 132.400,352.607 131.775,352.042 131.426 C 351.845 131.304,351.581 131.474,351.454 131.802 M66.282 132.668 C 65.995 133.131,66.663 134.270,67.015 133.918 C 67.157 133.776,67.102 133.353,66.892 132.979 C 66.682 132.604,66.408 132.464,66.282 132.668 M350.000 133.800 C 349.459 134.451,349.589 134.533,350.567 134.157 C 350.915 134.024,351.200 133.754,351.200 133.557 C 351.200 133.004,350.552 133.135,350.000 133.800 M68.411 135.900 C 68.434 136.525,70.800 138.542,70.800 137.936 C 70.800 137.608,70.383 136.948,69.874 136.470 C 68.925 135.578,68.391 135.370,68.411 135.900 M347.582 136.834 C 347.336 137.293,347.218 137.752,347.320 137.853 C 347.561 138.094,348.800 136.854,348.800 136.371 C 348.800 135.696,348.036 135.986,347.582 136.834 M345.748 139.122 C 344.935 139.650,344.294 141.216,345.002 140.944 C 345.620 140.707,346.595 139.261,346.321 138.987 C 346.242 138.908,345.984 138.969,345.748 139.122 M72.400 140.371 C 72.400 140.843,73.432 141.882,74.431 142.417 C 75.545 143.013,75.376 142.545,73.986 141.187 C 72.698 139.927,72.400 139.774,72.400 140.371 M336.057 149.475 C 332.898 152.649,330.420 155.354,330.551 155.485 C 330.682 155.616,333.415 153.104,336.625 149.904 C 339.835 146.703,342.312 143.999,342.130 143.894 C 341.949 143.790,339.215 146.301,336.057 149.475 M77.600 146.200 C 77.600 146.614,80.828 149.705,81.040 149.493 C 81.307 149.226,78.457 146.000,77.953 146.000 C 77.759 146.000,77.600 146.090,77.600 146.200 M83.920 153.280 C 84.293 153.653,84.507 153.653,84.880 153.280 C 85.253 152.907,85.147 152.800,84.400 152.800 C 83.653 152.800,83.547 152.907,83.920 153.280 M326.254 158.829 C 325.674 159.285,325.200 159.833,325.200 160.048 C 325.200 160.532,327.091 159.184,327.370 158.500 C 327.650 157.816,327.477 157.867,326.254 158.829 " stroke="none" fill="#e24636" fill-rule="evenodd"></path><path id="path2" d="M48.579 94.766 C 48.703 94.967,48.579 95.223,48.302 95.334 C 48.026 95.446,48.284 95.551,48.876 95.568 C 50.116 95.605,50.697 95.000,49.765 94.642 C 48.848 94.290,48.319 94.346,48.579 94.766 M54.600 94.800 C 54.464 95.020,54.408 95.211,54.476 95.226 C 56.191 95.580,57.160 95.457,56.514 94.967 C 55.658 94.318,54.937 94.255,54.600 94.800 M58.400 95.600 C 58.400 95.820,58.670 96.000,59.000 96.000 C 59.330 96.000,59.600 95.820,59.600 95.600 C 59.600 95.380,59.330 95.200,59.000 95.200 C 58.670 95.200,58.400 95.380,58.400 95.600 M60.231 96.050 C 60.350 96.243,60.797 96.400,61.224 96.400 C 61.651 96.400,62.000 96.243,62.000 96.050 C 62.000 95.858,61.553 95.700,61.007 95.700 C 60.461 95.700,60.112 95.858,60.231 96.050 M63.000 96.703 C 63.604 97.326,66.000 97.748,66.000 97.232 C 66.000 96.994,65.685 96.798,65.300 96.795 C 64.915 96.792,64.150 96.677,63.600 96.540 C 62.918 96.370,62.727 96.422,63.000 96.703 M47.600 97.757 C 47.600 98.284,47.890 98.826,48.245 98.962 C 48.716 99.143,48.824 99.038,48.645 98.572 C 48.510 98.221,48.400 97.679,48.400 97.367 C 48.400 97.055,48.220 96.800,48.000 96.800 C 47.780 96.800,47.600 97.231,47.600 97.757 M66.974 97.957 C 67.124 98.201,67.487 98.400,67.780 98.400 C 68.073 98.400,69.097 98.756,70.056 99.191 C 71.968 100.059,72.984 100.222,72.600 99.600 C 72.464 99.380,72.003 99.200,71.576 99.200 C 71.149 99.200,70.800 99.009,70.800 98.776 C 70.800 98.543,70.600 98.476,70.355 98.628 C 70.111 98.779,69.796 98.722,69.655 98.501 C 69.515 98.281,68.792 97.969,68.050 97.807 C 67.103 97.602,66.782 97.647,66.974 97.957 M73.454 99.912 C 73.319 100.131,73.477 100.532,73.804 100.804 C 74.455 101.343,74.591 100.920,74.044 100.057 C 73.835 99.728,73.604 99.671,73.454 99.912 M48.548 101.627 C 48.629 102.522,48.922 103.467,49.200 103.727 C 49.604 104.105,49.655 103.927,49.453 102.850 C 49.314 102.108,49.200 101.163,49.200 100.750 C 49.200 100.338,49.020 100.000,48.801 100.000 C 48.577 100.000,48.466 100.713,48.548 101.627 M49.820 105.800 C 49.975 106.680,50.349 107.684,50.651 108.031 C 50.953 108.379,51.200 108.863,51.200 109.108 C 51.200 109.353,51.380 109.664,51.600 109.800 C 52.276 110.218,52.043 108.997,51.289 108.175 C 50.898 107.749,50.537 106.868,50.487 106.218 C 50.437 105.567,50.202 104.847,49.967 104.618 C 49.662 104.321,49.620 104.665,49.820 105.800 M355.600 106.776 C 355.600 106.983,354.925 107.221,354.100 107.305 C 353.275 107.389,354.895 107.438,357.700 107.413 L 362.800 107.368 362.827 108.384 C 362.854 109.388,362.859 109.389,363.278 108.522 C 364.144 106.730,363.542 106.400,359.413 106.400 C 357.301 106.400,355.600 106.568,355.600 106.776 M348.600 107.600 C 348.456 107.833,348.863 108.000,349.576 108.000 C 350.249 108.000,350.800 107.820,350.800 107.600 C 350.800 107.380,350.361 107.200,349.824 107.200 C 349.287 107.200,348.736 107.380,348.600 107.600 M345.073 108.155 C 344.924 108.543,345.089 108.649,345.625 108.509 C 346.046 108.399,346.292 108.150,346.172 107.955 C 345.846 107.428,345.314 107.525,345.073 108.155 M341.100 108.687 C 340.495 108.778,340.000 109.042,340.000 109.273 C 340.000 109.514,340.385 109.590,340.900 109.452 C 341.395 109.319,342.115 109.208,342.500 109.205 C 342.885 109.202,343.200 109.020,343.200 108.800 C 343.200 108.395,343.070 108.388,341.100 108.687 M336.900 109.882 C 336.405 109.978,336.000 110.244,336.000 110.474 C 336.000 110.714,336.386 110.790,336.900 110.652 C 337.395 110.519,338.025 110.408,338.300 110.405 C 338.575 110.402,338.800 110.220,338.800 110.000 C 338.800 109.593,338.499 109.574,336.900 109.882 M51.856 110.678 C 51.715 110.818,51.603 111.128,51.606 111.367 C 51.609 111.605,51.770 111.551,51.963 111.247 C 52.220 110.840,52.386 111.025,52.588 111.947 C 52.740 112.636,53.020 113.200,53.211 113.200 C 53.599 113.200,52.895 110.906,52.416 110.610 C 52.249 110.507,51.996 110.537,51.856 110.678 M334.400 111.013 C 334.400 111.660,335.025 111.807,335.374 111.242 C 335.496 111.045,335.326 110.781,334.998 110.654 C 334.635 110.515,334.400 110.656,334.400 111.013 M361.447 112.864 C 361.200 114.102,361.374 114.759,361.829 114.304 C 362.247 113.886,362.454 111.600,362.074 111.600 C 361.868 111.600,361.586 112.169,361.447 112.864 M53.600 113.951 C 53.600 114.198,53.791 114.400,54.024 114.400 C 54.257 114.400,54.324 114.600,54.172 114.845 C 54.021 115.089,54.056 115.404,54.249 115.545 C 54.613 115.810,55.347 117.009,56.303 118.900 C 56.609 119.505,57.025 120.000,57.229 120.000 C 57.433 120.000,57.600 120.360,57.600 120.800 C 57.600 121.268,57.867 121.600,58.243 121.600 C 58.647 121.600,58.801 121.821,58.658 122.194 C 58.522 122.547,58.761 122.965,59.246 123.225 C 59.695 123.465,59.967 123.908,59.851 124.210 C 59.732 124.521,59.964 124.862,60.387 124.996 C 60.797 125.126,61.319 125.765,61.546 126.416 C 61.773 127.067,62.157 127.600,62.400 127.600 C 62.643 127.600,63.030 128.140,63.260 128.800 C 63.490 129.459,63.820 129.911,63.994 129.804 C 64.378 129.566,65.405 130.728,65.090 131.043 C 64.774 131.359,66.074 132.801,66.460 132.563 C 66.634 132.455,66.890 132.817,67.028 133.368 C 67.166 133.918,68.071 135.017,69.039 135.811 C 70.008 136.604,70.800 137.490,70.800 137.779 C 70.800 138.068,71.655 139.071,72.700 140.007 C 73.745 140.943,74.602 141.945,74.605 142.234 C 74.607 142.522,75.192 143.279,75.904 143.914 C 76.615 144.549,77.083 145.184,76.943 145.323 C 76.803 145.463,77.119 145.745,77.645 145.949 C 78.719 146.366,80.675 148.309,80.871 149.155 C 81.023 149.809,84.128 152.803,84.645 152.794 C 84.840 152.791,84.820 152.656,84.600 152.494 C 84.380 152.332,83.210 151.034,82.000 149.608 C 80.790 148.182,78.900 146.084,77.800 144.946 C 76.700 143.807,74.360 141.211,72.600 139.177 C 70.840 137.143,69.085 135.196,68.700 134.851 C 68.315 134.505,68.000 134.008,68.000 133.747 C 68.000 133.485,67.460 132.817,66.800 132.261 C 66.140 131.706,65.600 131.129,65.600 130.979 C 65.600 130.828,65.105 130.108,64.500 129.378 C 63.895 128.648,62.680 127.038,61.800 125.801 C 60.920 124.563,59.975 123.304,59.700 123.004 C 59.425 122.703,59.200 122.326,59.200 122.166 C 59.200 122.006,58.750 121.286,58.200 120.564 C 57.650 119.843,57.200 119.160,57.200 119.047 C 57.200 118.933,56.660 118.040,56.000 117.062 C 55.340 116.084,54.800 115.107,54.800 114.891 C 54.800 114.675,54.530 114.274,54.200 114.000 C 53.785 113.656,53.600 113.641,53.600 113.951 M360.180 116.187 C 359.491 117.836,359.451 118.400,360.024 118.400 C 360.257 118.400,360.324 118.200,360.172 117.955 C 360.021 117.711,360.059 117.396,360.257 117.255 C 360.874 116.817,361.625 114.800,361.171 114.800 C 360.945 114.800,360.498 115.424,360.180 116.187 M358.171 120.669 C 355.605 125.174,354.222 127.408,353.921 127.533 C 353.744 127.607,353.600 127.889,353.600 128.161 C 353.600 128.433,352.970 129.392,352.200 130.292 C 351.430 131.191,350.800 132.063,350.800 132.230 C 350.800 132.397,350.532 132.818,350.205 133.166 C 349.878 133.515,348.878 134.700,347.984 135.800 C 344.569 139.998,343.586 141.068,336.000 148.838 C 331.710 153.233,327.538 157.287,326.730 157.848 C 325.921 158.409,325.156 159.139,325.028 159.471 C 324.896 159.816,325.323 159.631,326.029 159.037 C 326.707 158.467,327.409 158.000,327.590 158.000 C 328.048 158.000,330.400 155.895,330.400 155.485 C 330.400 154.996,341.714 143.781,342.087 143.900 C 342.259 143.955,342.400 143.760,342.400 143.468 C 342.400 143.175,342.836 142.702,343.370 142.416 C 343.903 142.131,344.448 141.465,344.580 140.937 C 344.713 140.409,345.284 139.577,345.849 139.088 C 346.414 138.600,347.114 137.744,347.404 137.186 C 347.694 136.628,348.403 135.919,348.980 135.611 C 349.556 135.302,349.939 134.819,349.831 134.536 C 349.722 134.253,350.031 133.744,350.517 133.403 C 351.003 133.063,351.423 132.608,351.450 132.392 C 351.478 132.177,351.523 131.809,351.550 131.576 C 351.578 131.343,351.785 131.267,352.010 131.406 C 352.236 131.546,352.614 131.107,352.849 130.430 C 353.085 129.754,353.441 129.200,353.639 129.200 C 353.838 129.200,354.000 128.936,354.000 128.614 C 354.000 128.292,354.365 127.833,354.811 127.594 C 355.257 127.355,355.529 127.009,355.416 126.825 C 355.302 126.641,355.475 126.270,355.800 126.000 C 356.125 125.730,356.299 125.361,356.187 125.179 C 356.075 124.998,356.222 124.703,356.513 124.525 C 357.081 124.177,358.400 121.584,358.400 120.816 C 358.400 120.561,358.560 120.451,358.755 120.572 C 358.950 120.692,359.212 120.396,359.339 119.913 C 359.736 118.393,359.309 118.669,358.171 120.669 " stroke="none" fill="#ec443c" fill-rule="evenodd"></path><path id="path3" d="M49.600 94.418 C 49.600 94.592,50.770 94.714,52.200 94.689 C 53.630 94.664,54.800 94.533,54.800 94.397 C 54.800 94.261,53.630 94.138,52.200 94.125 C 50.770 94.111,49.600 94.243,49.600 94.418 M47.356 94.971 C 47.235 95.285,47.204 95.960,47.286 96.471 C 47.395 97.154,47.488 97.004,47.637 95.900 C 47.847 94.347,47.736 93.981,47.356 94.971 M71.083 139.164 C 71.569 139.569,71.854 140.013,71.716 140.150 C 71.579 140.288,71.677 140.400,71.933 140.400 C 72.190 140.400,72.400 140.248,72.400 140.062 C 72.400 139.619,71.042 138.396,70.569 138.413 C 70.366 138.421,70.597 138.758,71.083 139.164 M343.029 142.609 C 342.605 142.929,342.351 143.285,342.465 143.398 C 342.579 143.512,343.088 143.244,343.597 142.803 C 344.655 141.885,344.194 141.727,343.029 142.609 M74.800 143.379 C 74.800 143.816,76.705 145.561,76.933 145.333 C 77.073 145.194,76.731 144.657,76.173 144.140 C 75.187 143.226,74.800 143.012,74.800 143.379 M81.600 150.543 C 81.600 151.331,83.600 152.958,83.996 152.491 C 84.222 152.225,84.283 152.098,84.131 152.209 C 83.979 152.320,83.348 151.925,82.728 151.331 C 82.107 150.737,81.600 150.382,81.600 150.543 M263.000 156.800 C 262.368 157.460,261.942 158.000,262.053 158.000 C 262.165 158.000,262.861 157.460,263.600 156.800 C 264.339 156.140,264.765 155.600,264.547 155.600 C 264.328 155.600,263.632 156.140,263.000 156.800 M259.033 160.800 C 257.765 162.120,256.884 163.200,257.075 163.200 C 257.266 163.200,257.692 162.885,258.022 162.500 C 258.351 162.115,259.312 161.035,260.157 160.100 C 262.444 157.569,261.679 158.045,259.033 160.800 M91.205 160.587 C 92.192 161.570,93.152 162.380,93.337 162.387 C 93.522 162.394,92.840 161.590,91.821 160.600 C 90.803 159.610,89.844 158.800,89.690 158.800 C 89.536 158.800,90.218 159.604,91.205 160.587 M324.000 160.804 C 324.000 161.242,324.199 161.600,324.443 161.600 C 324.686 161.600,324.786 161.339,324.663 161.020 C 324.520 160.647,324.633 160.515,324.980 160.648 C 325.276 160.761,325.614 160.700,325.731 160.512 C 325.847 160.324,325.505 160.134,324.971 160.089 C 324.242 160.029,324.000 160.207,324.000 160.804 M285.063 221.680 C 285.400 223.449,285.600 223.601,285.600 222.090 C 285.600 221.407,285.423 220.738,285.206 220.604 C 284.960 220.452,284.906 220.855,285.063 221.680 M127.646 229.276 C 127.621 230.308,127.742 231.241,127.916 231.348 C 128.090 231.456,128.170 230.882,128.093 230.072 C 127.859 227.598,127.695 227.307,127.646 229.276 M285.346 232.200 C 285.347 234.400,285.414 235.249,285.495 234.087 C 285.576 232.924,285.576 231.124,285.493 230.087 C 285.411 229.049,285.345 230.000,285.346 232.200 M121.967 271.766 C 121.645 272.088,122.081 276.000,122.439 276.000 C 122.637 276.000,122.800 275.010,122.800 273.800 C 122.800 271.871,122.528 271.206,121.967 271.766 M290.500 271.888 C 290.171 272.005,290.000 272.935,290.000 274.600 C 290.000 275.993,289.821 277.193,289.603 277.267 C 289.385 277.340,289.160 278.321,289.103 279.446 C 289.035 280.794,288.842 281.433,288.538 281.318 C 288.280 281.221,287.957 281.686,287.806 282.372 C 287.658 283.047,287.360 283.600,287.145 283.600 C 286.929 283.600,286.856 283.768,286.983 283.972 C 287.109 284.177,287.030 284.458,286.807 284.596 C 286.276 284.924,286.280 286.000,286.813 286.000 C 287.039 286.000,287.341 285.685,287.483 285.300 C 287.625 284.915,287.885 284.502,288.061 284.383 C 288.236 284.263,288.443 283.753,288.520 283.250 C 288.596 282.746,288.842 282.214,289.065 282.067 C 289.662 281.674,289.970 280.206,290.252 276.400 C 290.391 274.530,290.686 272.771,290.909 272.490 C 291.383 271.894,291.207 271.635,290.500 271.888 M122.234 277.200 C 122.368 277.750,122.499 278.502,122.525 278.871 C 122.550 279.239,122.713 279.454,122.886 279.347 C 123.059 279.240,123.200 279.691,123.200 280.348 C 123.200 281.005,123.461 281.804,123.780 282.123 C 124.099 282.442,124.479 283.175,124.624 283.752 C 124.768 284.328,125.003 284.800,125.146 284.800 C 125.397 284.800,126.569 287.128,126.590 287.667 C 126.595 287.813,126.764 288.083,126.964 288.267 C 127.176 288.460,127.208 288.390,127.041 288.100 C 126.863 287.791,126.991 287.600,127.376 287.600 C 128.296 287.600,128.136 286.817,127.000 285.765 C 126.450 285.255,126.000 284.697,126.000 284.525 C 126.000 284.252,124.603 281.155,123.555 279.105 C 123.360 278.723,123.200 278.038,123.200 277.582 C 123.200 277.126,123.035 276.855,122.834 276.979 C 122.633 277.103,122.361 276.979,122.230 276.702 C 122.098 276.426,122.101 276.650,122.234 277.200 M135.613 298.681 C 135.619 298.857,136.069 299.323,136.613 299.719 C 137.156 300.114,137.594 300.294,137.587 300.119 C 137.581 299.943,137.131 299.477,136.587 299.081 C 136.044 298.686,135.606 298.506,135.613 298.681 " stroke="none" fill="#f64934" fill-rule="evenodd"></path><path id="path4" d="M47.602 95.900 C 47.601 96.395,47.780 96.800,48.000 96.800 C 48.220 96.800,48.421 97.205,48.446 97.700 C 48.475 98.250,48.558 98.357,48.661 97.975 C 48.754 97.631,48.554 96.821,48.217 96.175 C 47.663 95.111,47.605 95.085,47.602 95.900 M60.800 96.555 C 60.800 96.640,61.330 96.787,61.979 96.882 C 62.627 96.977,63.067 96.908,62.955 96.728 C 62.757 96.407,60.800 96.250,60.800 96.555 M74.400 100.732 C 74.400 100.969,75.030 101.282,75.800 101.426 C 76.570 101.571,77.200 101.835,77.200 102.013 C 77.200 102.191,77.740 102.455,78.400 102.600 C 79.060 102.745,79.600 103.029,79.600 103.232 C 79.600 103.434,79.735 103.563,79.900 103.518 C 80.248 103.424,84.900 105.655,85.204 106.063 C 85.316 106.213,85.901 106.460,86.504 106.612 C 87.107 106.763,87.600 107.058,87.600 107.267 C 87.600 107.476,87.760 107.549,87.955 107.428 C 88.150 107.307,88.519 107.461,88.775 107.770 C 89.031 108.079,89.997 108.718,90.920 109.190 C 94.169 110.852,94.800 111.247,94.800 111.622 C 94.800 111.830,94.999 112.000,95.242 112.000 C 95.486 112.000,96.367 112.540,97.200 113.200 C 98.033 113.860,98.892 114.400,99.109 114.400 C 99.325 114.400,99.724 114.668,99.996 114.996 C 100.268 115.323,100.631 115.504,100.803 115.398 C 100.975 115.292,101.219 115.474,101.346 115.802 C 101.472 116.131,101.777 116.400,102.024 116.400 C 102.270 116.400,103.421 117.210,104.579 118.200 C 105.738 119.190,106.855 120.000,107.062 120.000 C 107.268 120.000,107.879 120.532,108.419 121.183 C 108.958 121.834,109.560 122.374,109.755 122.383 C 110.130 122.401,112.848 124.720,115.200 127.029 C 115.970 127.784,116.782 128.402,117.003 128.401 C 117.526 128.400,134.400 145.281,134.399 145.803 C 134.398 146.022,135.019 146.830,135.778 147.600 C 136.538 148.370,138.067 150.080,139.177 151.400 C 140.287 152.720,141.467 154.115,141.798 154.500 C 142.129 154.885,142.400 155.310,142.400 155.444 C 142.400 155.579,143.120 156.549,144.000 157.600 C 144.880 158.651,145.600 159.634,145.600 159.784 C 145.600 159.934,146.276 160.899,147.103 161.928 C 148.591 163.782,149.227 164.769,150.303 166.900 C 150.609 167.505,150.986 168.000,151.142 168.000 C 151.297 168.000,151.643 168.495,151.909 169.100 C 153.660 173.078,156.007 174.730,157.190 172.816 C 157.476 172.353,159.637 171.045,160.900 170.570 C 161.285 170.425,161.600 170.148,161.600 169.953 C 161.600 169.759,161.969 169.600,162.421 169.600 C 162.872 169.600,163.997 169.208,164.921 168.730 C 168.234 167.013,168.734 166.800,169.462 166.798 C 169.868 166.796,170.669 166.551,171.241 166.252 C 171.814 165.953,173.119 165.583,174.141 165.430 C 175.164 165.276,176.000 164.996,176.000 164.807 C 176.000 164.618,177.170 164.338,178.600 164.185 C 180.030 164.032,181.200 163.769,181.200 163.601 C 181.200 163.433,183.315 163.081,185.900 162.818 C 188.485 162.555,190.913 162.174,191.295 161.970 C 191.677 161.767,193.162 161.600,194.595 161.600 C 196.028 161.600,197.200 161.465,197.200 161.300 C 197.200 160.955,215.158 161.024,215.504 161.371 C 215.630 161.497,216.696 161.600,217.872 161.600 C 219.048 161.600,220.323 161.772,220.705 161.982 C 221.087 162.191,222.795 162.477,224.500 162.616 C 226.205 162.755,227.600 163.008,227.600 163.179 C 227.600 163.349,228.051 163.403,228.602 163.297 C 229.154 163.192,229.829 163.290,230.102 163.515 C 230.376 163.741,231.500 164.055,232.600 164.213 C 233.700 164.371,234.780 164.642,235.000 164.815 C 235.220 164.987,236.075 165.255,236.900 165.409 C 237.725 165.563,238.400 165.815,238.400 165.969 C 238.400 166.123,239.345 166.488,240.500 166.781 C 241.655 167.074,242.690 167.424,242.800 167.557 C 243.310 168.178,249.184 170.800,250.063 170.800 C 250.772 170.800,251.912 169.919,254.072 167.700 C 262.848 158.690,273.338 148.400,273.748 148.400 C 273.932 148.400,275.570 147.050,277.387 145.400 C 279.205 143.750,280.827 142.400,280.992 142.400 C 281.158 142.400,282.511 141.320,284.000 140.000 C 285.489 138.680,286.906 137.600,287.150 137.600 C 287.394 137.600,287.818 137.240,288.093 136.800 C 288.368 136.360,288.791 136.000,289.034 136.000 C 289.277 136.000,289.802 135.640,290.200 135.200 C 290.598 134.760,291.095 134.400,291.304 134.400 C 291.514 134.400,292.039 133.950,292.471 133.400 C 292.904 132.850,293.437 132.400,293.656 132.400 C 293.874 132.400,294.643 131.950,295.364 131.400 C 296.086 130.850,296.856 130.400,297.076 130.400 C 297.510 130.400,298.800 129.105,298.800 128.669 C 298.800 127.904,291.624 132.253,291.267 133.234 C 291.193 133.435,290.962 133.600,290.753 133.600 C 290.270 133.600,282.307 139.808,278.400 143.230 C 277.630 143.905,276.550 144.802,276.000 145.224 C 274.327 146.509,271.384 149.190,266.806 153.600 C 264.407 155.910,262.210 158.008,261.923 158.261 C 261.635 158.515,258.981 161.260,256.024 164.361 C 249.954 170.727,250.495 170.472,247.027 168.600 C 245.601 167.830,244.157 167.200,243.817 167.200 C 243.478 167.200,243.200 167.040,243.200 166.845 C 243.200 166.649,242.615 166.378,241.900 166.242 C 241.185 166.107,240.097 165.733,239.483 165.413 C 238.869 165.092,237.699 164.710,236.883 164.563 C 236.067 164.416,235.220 164.156,235.000 163.985 C 234.780 163.815,233.745 163.548,232.700 163.392 C 231.655 163.236,230.800 162.980,230.800 162.821 C 230.800 162.663,230.575 162.522,230.300 162.508 C 227.823 162.381,221.602 161.431,220.839 161.063 C 219.481 160.408,193.213 160.418,191.000 161.075 C 190.120 161.336,187.510 161.811,185.200 162.130 C 182.890 162.450,179.920 162.987,178.600 163.325 C 177.280 163.662,175.300 164.151,174.200 164.411 C 173.100 164.672,172.029 165.045,171.820 165.242 C 171.611 165.439,171.128 165.600,170.746 165.600 C 170.364 165.600,169.545 165.810,168.926 166.066 C 168.307 166.323,167.710 166.551,167.600 166.573 C 167.490 166.594,167.220 166.720,167.000 166.851 C 166.435 167.188,164.265 167.746,163.870 167.656 C 163.689 167.614,163.645 167.750,163.774 167.958 C 163.902 168.165,163.465 168.454,162.803 168.599 C 162.142 168.745,161.600 169.010,161.600 169.188 C 161.600 169.367,161.131 169.631,160.557 169.775 C 159.983 169.919,158.611 170.645,157.508 171.387 C 155.277 172.890,154.784 172.876,154.093 171.289 C 153.831 170.690,153.160 169.480,152.600 168.600 C 152.041 167.720,151.465 166.730,151.321 166.400 C 151.176 166.070,150.955 165.710,150.829 165.600 C 150.298 165.136,148.800 162.801,148.800 162.436 C 148.800 162.218,148.575 161.896,148.300 161.720 C 147.748 161.367,146.996 160.255,146.430 158.955 C 146.227 158.490,145.777 158.000,145.431 157.867 C 145.084 157.734,144.800 157.425,144.800 157.180 C 144.800 156.680,142.074 153.175,141.300 152.680 C 141.025 152.504,140.800 152.139,140.800 151.869 C 140.800 151.599,140.289 150.930,139.664 150.381 C 139.039 149.833,138.454 149.169,138.364 148.906 C 137.779 147.201,115.744 125.139,113.955 124.467 C 113.760 124.393,112.991 123.763,112.247 123.067 C 111.504 122.370,110.378 121.411,109.747 120.935 C 106.814 118.724,105.350 117.570,104.766 117.009 C 104.418 116.674,103.951 116.400,103.728 116.400 C 103.506 116.400,102.981 116.021,102.562 115.557 C 102.143 115.094,101.170 114.372,100.400 113.953 C 98.736 113.048,97.476 112.278,97.200 111.996 C 96.822 111.612,93.617 109.600,93.382 109.600 C 93.252 109.600,92.558 109.151,91.840 108.603 C 90.071 107.254,78.886 101.600,77.986 101.600 C 77.591 101.600,77.207 101.424,77.133 101.209 C 76.940 100.641,74.400 100.197,74.400 100.732 M333.200 110.688 C 333.200 110.920,332.705 111.203,332.100 111.317 C 330.538 111.612,327.025 112.943,326.867 113.300 C 326.793 113.465,326.468 113.600,326.145 113.600 C 325.821 113.600,324.321 114.125,322.812 114.768 C 321.303 115.410,319.934 115.815,319.770 115.668 C 319.606 115.520,319.601 115.625,319.759 115.900 C 319.949 116.229,319.775 116.400,319.252 116.400 C 318.815 116.400,318.214 116.643,317.918 116.940 C 317.621 117.236,316.668 117.714,315.800 118.000 C 314.932 118.286,313.979 118.764,313.682 119.060 C 313.386 119.357,312.796 119.600,312.371 119.600 C 311.947 119.600,311.600 119.780,311.600 120.000 C 311.600 120.220,311.389 120.400,311.131 120.400 C 310.874 120.400,310.379 120.650,310.031 120.955 C 309.684 121.261,308.500 121.993,307.400 122.582 C 306.300 123.171,304.320 124.362,303.000 125.227 C 301.680 126.093,300.105 126.998,299.500 127.240 C 298.896 127.481,298.510 127.855,298.644 128.071 C 298.939 128.549,300.842 128.141,301.409 127.478 C 301.888 126.918,302.997 126.189,304.400 125.511 C 304.950 125.245,305.985 124.595,306.700 124.066 C 307.415 123.538,308.000 123.244,308.000 123.415 C 308.000 123.585,308.334 123.422,308.741 123.053 C 309.531 122.339,323.517 115.193,323.946 115.285 C 324.086 115.315,324.740 115.105,325.400 114.818 C 326.060 114.530,327.140 114.068,327.800 113.790 C 328.460 113.512,329.450 113.093,330.000 112.859 C 330.550 112.625,331.796 112.231,332.769 111.983 C 333.742 111.735,334.372 111.410,334.169 111.261 C 333.966 111.113,333.665 110.828,333.500 110.629 C 333.327 110.420,333.200 110.446,333.200 110.688 M84.933 153.025 C 84.933 153.951,105.633 174.400,106.570 174.400 C 106.709 174.400,107.402 174.928,108.111 175.574 C 110.396 177.654,112.233 179.146,116.150 182.103 C 122.098 186.593,123.533 187.600,123.983 187.600 C 124.212 187.600,124.400 187.746,124.400 187.925 C 124.400 188.104,125.030 188.498,125.800 188.800 C 126.570 189.102,127.200 189.481,127.200 189.643 C 127.200 189.804,127.740 190.055,128.400 190.200 C 129.060 190.345,129.600 190.629,129.600 190.832 C 129.600 191.034,129.825 191.206,130.100 191.214 C 130.375 191.221,131.320 191.575,132.200 192.000 C 133.080 192.425,134.115 192.779,134.500 192.786 C 135.403 192.804,135.390 192.885,134.200 194.638 C 133.650 195.449,133.200 195.961,133.200 195.777 C 133.200 195.593,132.716 196.423,132.124 197.621 C 131.532 198.820,130.912 199.857,130.746 199.926 C 130.581 199.995,130.555 200.340,130.690 200.691 C 130.856 201.123,130.780 201.235,130.458 201.036 C 130.195 200.873,130.014 200.889,130.056 201.070 C 130.154 201.501,129.636 203.583,129.176 204.600 C 127.841 207.557,127.362 221.131,128.175 232.964 C 128.466 237.200,128.435 238.069,128.003 237.802 C 127.666 237.594,127.573 237.632,127.744 237.910 C 128.051 238.406,127.179 242.000,126.752 242.000 C 126.597 242.000,126.520 242.450,126.580 243.000 C 126.641 243.550,126.555 244.000,126.391 244.000 C 126.227 244.000,125.963 245.035,125.806 246.300 C 125.649 247.565,125.403 248.780,125.260 249.000 C 125.117 249.220,124.799 250.480,124.553 251.800 C 124.306 253.120,123.916 254.740,123.686 255.400 C 122.775 258.012,122.406 259.515,122.019 262.200 C 121.509 265.743,121.474 272.125,121.968 271.820 C 122.170 271.695,122.335 270.109,122.334 268.296 C 122.334 266.483,122.425 264.730,122.538 264.400 C 122.650 264.070,122.858 262.768,122.999 261.506 C 123.140 260.245,123.423 259.109,123.628 258.983 C 123.833 258.856,124.001 258.268,124.002 257.676 C 124.004 257.084,124.250 256.131,124.549 255.557 C 124.849 254.983,125.220 253.501,125.375 252.263 C 125.529 251.025,125.800 249.924,125.975 249.815 C 126.151 249.707,126.417 248.539,126.566 247.221 C 126.715 245.903,126.992 244.729,127.181 244.612 C 127.370 244.495,127.426 244.021,127.305 243.559 C 127.184 243.094,127.309 242.580,127.586 242.409 C 127.862 242.238,128.181 241.263,128.297 240.240 C 128.412 239.218,128.662 238.285,128.853 238.167 C 129.346 237.863,129.295 230.800,128.800 230.800 C 128.301 230.800,128.245 210.543,128.743 210.235 C 128.931 210.119,129.190 209.016,129.317 207.784 C 129.444 206.552,129.724 205.332,129.938 205.072 C 130.153 204.813,130.455 203.925,130.609 203.100 C 130.763 202.275,131.049 201.600,131.245 201.600 C 131.440 201.600,131.569 201.465,131.530 201.300 C 131.416 200.810,132.489 198.701,133.616 197.200 C 134.194 196.430,134.781 195.485,134.921 195.100 C 135.061 194.715,135.361 194.400,135.587 194.400 C 135.814 194.400,136.000 193.860,136.000 193.200 C 136.000 192.158,135.855 192.000,134.900 191.997 C 134.295 191.996,133.260 191.637,132.600 191.200 C 131.940 190.763,130.995 190.404,130.500 190.403 C 130.005 190.401,129.600 190.233,129.600 190.029 C 129.600 189.825,128.610 189.190,127.400 188.617 C 126.190 188.045,125.200 187.402,125.200 187.188 C 125.200 186.975,125.028 186.800,124.818 186.800 C 124.133 186.800,118.957 183.244,117.685 181.900 C 117.320 181.515,116.820 181.200,116.573 181.200 C 116.326 181.200,115.798 180.840,115.400 180.400 C 115.002 179.960,114.512 179.600,114.312 179.600 C 114.112 179.600,113.494 179.060,112.939 178.400 C 112.383 177.740,111.720 177.200,111.464 177.200 C 111.209 177.201,110.460 176.677,109.800 176.037 C 107.006 173.327,103.707 170.400,103.447 170.400 C 103.293 170.400,101.210 168.420,98.818 166.000 C 96.426 163.580,94.322 161.600,94.144 161.600 C 93.670 161.600,88.001 155.895,87.993 155.410 C 87.987 155.025,87.015 154.021,85.567 152.902 C 85.052 152.504,84.933 152.527,84.933 153.025 M322.573 160.940 C 322.119 161.193,321.288 161.896,320.727 162.500 C 320.167 163.105,319.573 163.600,319.408 163.600 C 319.244 163.600,318.070 164.500,316.800 165.600 C 315.530 166.700,314.361 167.600,314.201 167.600 C 314.042 167.600,313.051 168.320,312.000 169.200 C 310.949 170.080,309.955 170.800,309.790 170.800 C 309.626 170.800,309.110 171.205,308.643 171.700 C 308.176 172.195,307.255 172.870,306.597 173.199 C 305.939 173.529,305.256 174.024,305.080 174.299 C 304.904 174.575,304.570 174.800,304.338 174.800 C 304.105 174.800,303.233 175.340,302.400 176.000 C 301.567 176.660,300.757 177.200,300.600 177.200 C 300.443 177.200,299.659 177.703,298.858 178.318 C 298.056 178.932,296.950 179.661,296.400 179.937 C 294.065 181.109,293.200 181.664,293.200 181.990 C 293.200 182.181,292.660 182.455,292.000 182.600 C 291.340 182.745,290.800 183.016,290.800 183.202 C 290.800 183.509,289.949 184.032,287.303 185.352 C 286.810 185.599,286.405 185.921,286.403 186.068 C 286.401 186.216,285.860 186.455,285.200 186.600 C 284.540 186.745,284.000 187.008,284.000 187.185 C 284.000 187.362,283.685 187.624,283.300 187.766 C 280.898 188.657,276.181 191.500,276.065 192.127 C 275.991 192.527,276.768 194.597,277.792 196.727 C 280.641 202.658,280.754 202.916,281.041 204.200 C 281.190 204.860,281.415 205.580,281.543 205.800 C 281.671 206.020,281.723 206.605,281.659 207.100 C 281.595 207.595,281.718 208.000,281.932 208.000 C 282.146 208.000,282.451 209.125,282.609 210.500 C 282.767 211.875,283.048 213.097,283.234 213.215 C 283.420 213.333,283.695 215.178,283.845 217.315 C 283.995 219.452,284.256 221.200,284.423 221.200 C 284.591 221.200,284.790 226.555,284.864 233.100 C 284.941 239.791,285.169 245.263,285.385 245.600 C 285.597 245.930,285.720 246.677,285.659 247.260 C 285.598 247.843,285.727 248.431,285.946 248.567 C 286.165 248.702,286.467 249.800,286.618 251.006 C 286.769 252.213,287.028 253.200,287.195 253.200 C 287.361 253.200,287.615 254.086,287.758 255.170 C 287.902 256.253,288.195 257.198,288.410 257.270 C 288.625 257.342,289.017 258.885,289.282 260.700 C 289.546 262.515,289.906 264.000,290.081 264.000 C 290.257 264.000,290.400 265.811,290.400 268.024 C 290.400 270.604,290.543 271.959,290.800 271.800 C 291.023 271.662,291.200 269.804,291.200 267.600 C 291.200 265.396,291.023 263.538,290.800 263.400 C 290.580 263.264,290.398 262.668,290.395 262.076 C 290.393 261.484,290.109 260.010,289.765 258.800 C 289.421 257.590,288.952 255.790,288.723 254.800 C 288.495 253.810,288.154 252.808,287.966 252.574 C 287.778 252.339,287.505 251.129,287.358 249.883 C 287.212 248.638,286.951 247.707,286.778 247.813 C 286.606 247.920,286.338 246.791,286.183 245.304 C 286.028 243.817,285.792 242.420,285.659 242.200 C 285.526 241.980,285.387 237.570,285.350 232.400 C 285.286 223.241,284.633 213.806,284.009 213.000 C 283.838 212.780,283.569 211.520,283.411 210.200 C 283.252 208.880,282.984 207.620,282.814 207.400 C 282.644 207.180,282.273 206.010,281.990 204.800 C 281.442 202.456,279.262 196.734,278.790 196.400 C 278.635 196.290,278.370 195.758,278.201 195.219 C 278.032 194.679,277.648 193.991,277.347 193.690 C 276.270 192.612,279.241 190.000,281.544 190.000 C 281.795 190.000,282.000 189.833,282.000 189.629 C 282.000 189.425,283.125 188.702,284.500 188.023 C 285.875 187.343,287.720 186.337,288.600 185.785 C 289.480 185.234,290.470 184.665,290.800 184.521 C 291.130 184.376,291.490 184.155,291.600 184.029 C 291.947 183.631,293.359 182.789,294.500 182.298 C 295.105 182.038,295.600 181.706,295.600 181.561 C 295.600 181.416,296.140 181.073,296.800 180.800 C 297.460 180.527,298.000 180.145,298.000 179.951 C 298.000 179.758,298.182 179.600,298.404 179.600 C 298.626 179.600,299.705 178.970,300.800 178.200 C 301.895 177.430,302.900 176.800,303.033 176.800 C 303.165 176.800,303.686 176.485,304.191 176.100 C 304.695 175.715,305.510 175.130,306.003 174.800 C 306.495 174.470,307.101 174.020,307.349 173.800 C 307.597 173.580,308.610 172.860,309.600 172.200 C 310.590 171.540,311.580 170.861,311.800 170.691 C 312.020 170.521,313.100 169.711,314.200 168.891 C 315.300 168.071,316.344 167.175,316.520 166.900 C 316.696 166.625,317.024 166.400,317.248 166.400 C 317.915 166.400,324.000 161.161,324.000 160.586 C 324.000 160.303,323.488 160.429,322.573 160.940 M286.400 286.346 C 286.400 286.536,285.863 287.301,285.206 288.046 C 284.550 288.791,284.010 289.631,284.006 289.913 C 284.003 290.194,283.730 290.529,283.400 290.655 C 283.070 290.782,282.800 291.108,282.800 291.381 C 282.800 291.653,282.440 292.202,282.000 292.600 C 281.560 292.998,281.200 293.502,281.200 293.719 C 281.200 294.337,274.501 301.284,271.367 303.916 C 267.409 307.241,264.848 309.200,264.461 309.200 C 264.229 309.200,263.896 309.439,263.720 309.730 C 263.544 310.022,263.130 310.390,262.800 310.549 C 262.470 310.708,261.480 311.275,260.600 311.810 C 259.720 312.344,258.571 312.970,258.048 313.200 C 257.524 313.431,256.568 313.996,255.923 314.455 C 254.366 315.564,251.582 317.032,250.373 317.381 C 249.838 317.536,248.230 318.215,246.800 318.891 C 243.799 320.310,243.182 320.562,241.000 321.257 C 240.120 321.537,239.220 321.893,239.000 322.048 C 238.780 322.202,237.923 322.455,237.096 322.610 C 236.268 322.764,235.500 323.038,235.389 323.217 C 235.278 323.397,234.200 323.667,232.994 323.818 C 231.787 323.969,230.800 324.236,230.800 324.412 C 230.800 324.588,229.447 324.858,227.794 325.013 C 226.141 325.168,224.706 325.428,224.606 325.590 C 224.506 325.752,223.542 325.800,222.464 325.697 C 221.258 325.581,220.398 325.680,220.228 325.954 C 219.837 326.587,198.800 326.583,198.800 325.950 C 198.800 325.650,198.070 325.561,196.600 325.683 C 195.390 325.784,194.400 325.739,194.400 325.585 C 194.400 325.430,192.960 325.178,191.200 325.024 C 189.440 324.871,188.000 324.598,188.000 324.419 C 188.000 324.239,187.013 323.969,185.806 323.818 C 184.600 323.667,183.522 323.397,183.411 323.218 C 183.300 323.039,182.402 322.771,181.414 322.623 C 180.427 322.475,179.526 322.205,179.414 322.022 C 179.301 321.840,178.532 321.567,177.704 321.416 C 176.877 321.265,175.837 320.908,175.394 320.623 C 174.951 320.338,174.006 319.977,173.294 319.821 C 172.582 319.664,172.000 319.390,172.000 319.212 C 172.000 319.033,171.505 318.771,170.900 318.629 C 169.987 318.414,162.902 315.158,160.800 313.986 C 160.470 313.802,158.890 312.991,157.288 312.185 C 155.686 311.379,154.156 310.510,153.888 310.255 C 153.620 309.999,152.950 309.564,152.400 309.287 C 151.850 309.011,150.680 308.342,149.800 307.802 C 148.920 307.261,147.897 306.707,147.528 306.570 C 147.158 306.433,146.759 306.069,146.640 305.761 C 146.522 305.452,146.214 305.200,145.956 305.200 C 145.697 305.200,144.538 304.390,143.379 303.400 C 142.221 302.410,141.067 301.600,140.817 301.600 C 140.210 301.600,130.400 291.773,130.400 291.165 C 130.400 290.905,129.985 290.307,129.478 289.837 C 128.971 289.367,128.436 288.671,128.290 288.291 C 128.144 287.911,127.755 287.600,127.425 287.600 C 127.056 287.600,126.914 287.831,127.055 288.200 C 127.182 288.530,127.461 288.800,127.676 288.800 C 127.891 288.800,127.999 289.003,127.916 289.252 C 127.833 289.500,128.223 290.188,128.783 290.779 C 129.342 291.370,130.340 292.562,131.000 293.427 C 134.228 297.658,142.443 304.568,148.400 308.062 C 149.610 308.772,150.660 309.498,150.733 309.676 C 150.807 309.854,151.043 310.000,151.260 310.000 C 151.476 310.000,153.170 310.896,155.025 311.992 C 156.880 313.088,158.848 314.097,159.399 314.235 C 159.950 314.374,160.400 314.647,160.400 314.843 C 160.400 315.040,160.605 315.200,160.855 315.200 C 161.262 315.200,163.132 316.065,170.406 319.618 C 171.619 320.210,173.239 320.831,174.006 320.998 C 174.773 321.164,175.490 321.417,175.600 321.560 C 175.710 321.703,177.150 322.237,178.800 322.745 C 180.450 323.254,182.160 323.819,182.600 324.000 C 183.040 324.181,184.480 324.536,185.800 324.789 C 187.120 325.042,188.560 325.336,189.000 325.443 C 189.440 325.550,191.510 325.819,193.600 326.042 C 195.690 326.265,197.953 326.617,198.628 326.824 C 200.159 327.292,219.875 327.326,220.163 326.860 C 220.279 326.673,222.062 326.401,224.127 326.256 C 226.192 326.111,228.763 325.742,229.841 325.435 C 232.103 324.792,234.864 324.235,235.300 324.333 C 235.465 324.370,235.600 324.220,235.600 324.000 C 235.600 323.780,235.902 323.600,236.272 323.600 C 237.065 323.600,242.110 321.957,242.400 321.604 C 242.510 321.471,243.410 321.131,244.400 320.849 C 246.862 320.149,249.200 319.114,249.200 318.723 C 249.200 318.545,249.464 318.400,249.787 318.400 C 250.496 318.400,256.944 315.167,257.133 314.717 C 257.207 314.543,257.481 314.400,257.742 314.400 C 258.004 314.400,259.131 313.815,260.247 313.100 C 261.363 312.385,262.559 311.620,262.905 311.400 C 267.963 308.184,272.380 304.650,276.726 300.343 C 279.786 297.310,283.600 292.687,283.600 292.012 C 283.600 291.785,283.778 291.600,283.995 291.600 C 284.212 291.600,284.661 291.015,284.994 290.300 C 285.326 289.585,285.946 288.460,286.370 287.800 C 287.261 286.415,287.360 286.000,286.800 286.000 C 286.580 286.000,286.400 286.156,286.400 286.346 " stroke="none" fill="#f85844" fill-rule="evenodd"></path></g></svg>